<?xml version="1.0" encoding="utf-8"?>
<!-- Generator: Adobe Illustrator 22.1.0, SVG Export Plug-In . SVG Version: 6.00 Build 0)  -->
<svg version="1.1" id="Layer_1" xmlns="http://www.w3.org/2000/svg" xmlns:xlink="http://www.w3.org/1999/xlink" x="0px" y="0px"
	 viewBox="0 0 271.4 305.7" style="enable-background:new 0 0 271.4 305.7;" xml:space="preserve">
<style type="text/css">
	.st0{fill:none;stroke:#FFFFFF;stroke-width:25;stroke-linecap:round;stroke-linejoin:round;stroke-miterlimit:10;}
	.st1{fill:#FFFFFF;}
</style>
<g>
	<line class="st0" x1="135.9" y1="12.5" x2="135.9" y2="164.5"/>
</g>
<line class="st0" x1="198.9" y1="137.5" x2="135.9" y2="178.5"/>
<line class="st0" x1="73.9" y1="137.5" x2="135.9" y2="178.5"/>
<path class="st1" d="M135.7,305.7c-8.8,0-17.6-2.3-25.2-6.8l-81.6-47.1C11.1,241.5,0,222.3,0,201.8v-90c0-20.6,11.1-39.7,28.9-50
	L69,41c1.9-1.1,4-1.7,6.1-1.7c6.6,0,12,5.4,12,12c0,4.3-2.3,8.2-6,10.4L40.9,82.4c-10.5,6.1-17,17.3-17,29.3v90
	c0,12,6.5,23.3,16.9,29.3l81.6,47.1c4,2.3,8.6,3.6,13.3,3.6c4.6,0,9.2-1.2,13.3-3.6l81.6-47.1c10.4-6,16.9-17.2,16.9-29.3v-90
	c0-12-6.5-23.3-16.9-29.3l-42-21.9c-3.6-2.1-5.9-6.1-5.9-10.3c0-6.6,5.4-12,12-12c2.1,0,4.1,0.6,6,1.6l42,21.9
	c17.7,10.2,28.8,29.4,28.8,50v90c0,20.6-11.1,39.7-28.9,50l-81.6,47.1C153.3,303.3,144.6,305.7,135.7,305.7z"/>
</svg>
