<?xml version="1.0" encoding="UTF-8"?>
<svg width="34px" height="34px" viewBox="0 0 34 34" version="1.1" xmlns="http://www.w3.org/2000/svg" xmlns:xlink="http://www.w3.org/1999/xlink">
    <title>github icon</title>
    <g id="Page-1" stroke="none" stroke-width="1" fill="none" fill-rule="evenodd">
        <g id="Homepage-Rd1" transform="translate(-1184.000000, -37.000000)">
            <g id="CTA" transform="translate(1160.000000, 29.000000)">
                <g id="github-icon" transform="translate(24.000000, 8.000000)">
                    <rect id="Rectangle" x="0" y="0" width="34" height="34"></rect>
                    <circle id="Oval" stroke="#FFFFFF" stroke-width="2" cx="17" cy="17" r="16"></circle>
                    <path d="M7.72727273,17.2352443 C7.72727273,21.435328 10.3839422,24.9992123 14.0686694,26.2564358 C14.5326047,26.3439862 14.7016706,26.0504006 14.7016706,25.7982555 C14.7016706,25.5723755 14.6937012,24.9746982 14.6891472,24.1814917 C12.1098951,24.7558222 11.5656963,22.9067581 11.5656963,22.9067581 C11.1438852,21.8082927 10.5359308,21.5158744 10.5359308,21.5158744 C9.6940165,20.9257848 10.5996864,20.9380419 10.5996864,20.9380419 C11.530403,21.0051638 12.0199543,21.9180225 12.0199543,21.9180225 C12.8476375,23.3707752 14.190488,22.951117 14.718748,22.7077269 C14.8029964,22.0931232 15.0426488,21.6746324 15.307348,21.4364954 C13.2483864,21.1966073 11.0835452,20.3812214 11.0835452,16.7379582 C11.0835452,15.6996106 11.4450162,14.8509556 12.0381702,14.1861563 C11.9431061,13.9456846 11.6248978,12.9791284 12.1292495,11.670542 C12.1292495,11.670542 12.9079775,11.4143112 14.6789008,12.6446859 C15.4189202,12.4339813 16.2118794,12.3283372 17.0002846,12.3248352 C17.7881206,12.3283372 18.5810798,12.4339813 19.3222377,12.6446859 C21.0920225,11.4143112 21.869612,11.670542 21.869612,11.670542 C22.3751022,12.9791284 22.0568939,13.9456846 21.9618298,14.1861563 C22.5561223,14.8509556 22.9147471,15.6996106 22.9147471,16.7379582 C22.9147471,20.3899765 20.7470596,21.193689 18.6812671,21.4294913 C19.0142758,21.723077 19.3102835,22.3032442 19.3102835,23.1898377 C19.3102835,24.4610693 19.2994679,25.4865761 19.2994679,25.7982555 C19.2994679,26.0527352 19.4662568,26.3480719 19.937023,26.2552685 C23.6183347,24.9957103 26.2727273,21.4347444 26.2727273,17.2352443 C26.2727273,11.9839724 22.1206494,7.72727273 16.9991461,7.72727273 C11.8793506,7.72727273 7.72727273,11.9839724 7.72727273,17.2352443 Z" id="Shape" fill="#FFFFFF"></path>
                </g>
            </g>
        </g>
    </g>
</svg>