<svg xmlns="http://www.w3.org/2000/svg" width="10" height="10" viewBox="0 0 60 60">
  <defs>
    <linearGradient id="a" x1="50%" x2="50%" y1="0%" y2="100%">
      <stop offset="0%" stop-color="#F12FA5"/>
      <stop offset="100%" stop-color="#DE156C"/>
    </linearGradient>
  </defs>
  <g fill="none" fill-rule="evenodd">
    <g transform="translate(0 5)">
      <path fill="#DE156C" d="M27.9980217,14.1759296 L6.00104499,1.4671193 C4.08820782,0.361972668 1.64164856,1.01673522 0.536501922,2.92957239 C0.185040439,3.53789762 8.02140138e-16,4.2280615 8.8817842e-16,4.93061738 L6.21724894e-15,30.3575366 C6.39219706e-15,31.7860964 0.761864077,33.1062197 1.99878189,33.8209347 L27.9978486,48.8436962 C29.2360361,49.5591448 30.7619766,49.5591668 32.0001848,48.843754 L58.0011181,33.8209155 C59.2380923,33.1062156 60,31.7860607 60,30.3574596 L60,4.93038624 C60,2.72124724 58.209139,0.93038624 56,0.93038624 C55.2974833,0.93038624 54.6073565,1.11540606 53.999055,1.46683038 L32.0000116,14.1759874 C30.7618914,14.8912669 29.2361213,14.8912449 27.9980217,14.1759296 Z"/>
      <path fill="url(#a)" d="M30,17.6406351 L30,43.0690981 C30,45.2782371 31.790861,47.0690981 34,47.0690981 C34.7026041,47.0690981 35.3928136,46.8840323 36.0011681,46.5325251 L58.0011681,33.8209251 C59.2381141,33.1062177 60,31.7860786 60,30.3574981 L60,4.93050181 C60,2.72136281 58.209139,0.930501806 56,0.930501806 C55.2974637,0.930501806 54.6073184,1.11553193 53.999005,1.46697483 L31.999005,14.1771082 C30.7619614,14.8917895 30,16.2119833 30,17.6406351 Z"/>
    </g>
  </g>
</svg>
