<?xml version="1.0" encoding="UTF-8"?>
<svg width="76px" height="66px" viewBox="0 0 76 66" version="1.1" xmlns="http://www.w3.org/2000/svg" xmlns:xlink="http://www.w3.org/1999/xlink">
    <title>logo</title>
    <defs>
        <polygon id="path-1" points="1.8569639e-05 0.0644223108 38.069953 0.0644223108 38.069953 43.9834343 1.8569639e-05 43.9834343"></polygon>
        <path d="M0.0268648256,9.47966197 C0.0268648256,14.698061 4.23169767,18.9284601 9.41838227,18.9284601 L9.41838227,18.9284601 C11.9274506,18.9284601 14.2010305,17.9324319 15.8858009,16.319662 L15.8858009,16.319662 C15.9801381,16.2210939 16.0773125,16.1261831 16.1758169,16.0319859 L16.1758169,16.0319859 C17.8604985,14.4191268 20.1341672,13.4230986 22.6431468,13.4230986 L22.6431468,13.4230986 L28.0415581,13.4230986 L45.7090378,13.4230986 L51.1663212,13.4230986 L51.1663212,17.3175634 L56.0428634,13.4230986 L60.9812035,9.47957277 L56.0433067,5.53622535 L51.1663212,1.64158216 L51.1663212,5.53622535 L45.7090378,5.53622535 L28.0415581,5.53622535 L22.6431468,5.53622535 C20.1339012,5.53622535 17.8603212,4.54019718 16.1757282,2.92715962 L16.1757282,2.92715962 C16.0773125,2.83305164 15.9801381,2.73831925 15.8859782,2.63992958 L15.8859782,2.63992958 C14.2012078,1.02698122 11.9274506,0.0310422535 9.41838227,0.0310422535 L9.41838227,0.0310422535 C4.23169767,0.0310422535 0.0268648256,4.26126291 0.0268648256,9.47966197" id="path-3"></path>
        <linearGradient x1="-2.75351462e-05%" y1="49.9998608%" x2="100.000024%" y2="49.9998608%" id="linearGradient-5">
            <stop stop-color="#00B1E1" offset="0%"></stop>
            <stop stop-color="#2B75BA" offset="100%"></stop>
        </linearGradient>
        <polygon id="path-6" points="0.0452087773 0.00353179191 9.18219459 0.00353179191 9.18219459 10.3605324 0.0452087773 10.3605324"></polygon>
    </defs>
    <g id="Symbols" stroke="none" stroke-width="1" fill="none" fill-rule="evenodd">
        <g id="NAV/Footer" transform="translate(-130.000000, -34.000000)">
            <g id="logo" transform="translate(130.000000, 34.000000)">
                <g id="Group-6">
                    <g id="Group-3">
                        <mask id="mask-2" fill="white">
                            <use xlink:href="#path-1"></use>
                        </mask>
                        <g id="Clip-2"></g>
                        <path d="M37.38891,31.8294422 L33.1530807,30.0277211 C31.1237155,32.93549 27.9942107,35.066247 24.2420282,35.7326454 C16.7225926,37.0678088 9.55108305,32.0169243 8.22410334,24.4511155 C6.89703652,16.8853068 11.9169625,9.66965737 19.4363981,8.33440637 C24.7985007,7.38227092 29.9819363,9.67921116 32.9969757,13.8181036 L38.069953,11.3981912 C36.3761439,10.9255857 35.0151033,9.51355378 34.6892167,7.6558247 C34.5003575,6.57878884 34.6903492,5.52322709 35.1612776,4.62543426 C33.5287955,3.36144223 31.7216535,2.32998406 29.7938611,1.56918725 C29.7109303,1.68996813 29.6224243,1.80820717 29.5267752,1.92285259 C27.8560508,3.92686853 24.8870938,4.18867729 22.8953611,2.5076494 C22.1141391,1.84826295 21.6006129,0.987633466 21.3641033,0.0644223108 C20.2670998,0.089752988 19.1579876,0.198876494 18.0440842,0.396613546 C17.0900317,0.566039841 16.1620258,0.796119522 15.262157,1.08089243 C15.2717394,1.20439044 15.2781857,1.32885259 15.2781857,1.45480478 C15.2785341,4.07043825 13.1714649,6.19129084 10.5717764,6.19164143 C9.51249236,6.19181673 8.53491957,5.83972908 7.74829666,5.24564143 C6.16782053,6.59123506 4.78866062,8.15244622 3.65001742,9.87642231 C3.79497208,10.0112271 3.93382888,10.155498 4.06406158,10.3115139 C5.7353957,12.315004 5.47606277,15.3023586 3.48485274,16.984 C2.57287542,17.7542629 1.45574893,18.1157291 0.352124821,18.0901355 C-0.0110458234,20.0918725 -0.100422912,22.1717928 0.117357518,24.2814263 C0.450474463,24.2676653 0.789863484,24.2883506 1.13169165,24.3489163 C3.69191838,24.8027649 5.40175609,27.2588765 4.95068926,29.8349801 C4.71618329,31.1741753 3.94314988,32.2810996 2.89580024,32.9725657 C3.94323699,34.8084701 5.24120835,36.4638167 6.73500788,37.901004 C7.05174773,37.5531235 7.42554606,37.2471394 7.8530926,36.998741 C10.1042453,35.6904861 12.9831284,36.4662709 14.2833647,38.7313068 C15.0168492,40.0091474 15.0908945,41.4878805 14.6122131,42.7690518 C16.5781606,43.4648127 18.6583993,43.8826375 20.7987453,43.9834343 C20.796132,43.4385179 20.8873384,42.8839602 21.0832537,42.3419363 C21.9720592,39.8838964 24.6729721,38.6161355 27.1159458,39.5103347 C28.5088695,40.0202789 29.5161475,41.1231713 29.9609422,42.4323028 C31.9503229,41.6328526 33.7790687,40.5550279 35.4082406,39.252996 C35.0832251,38.8523506 34.8174458,38.3918406 34.6317227,37.8783904 C33.749015,35.4393705 34.9828718,32.7451155 37.38891,31.8294422" id="Fill-1" fill="#FFFFFF" mask="url(#mask-2)"></path>
                    </g>
                    <polygon id="Fill-4" fill="#FFFFFF" points="51.3893779 17.5790518 51.3893779 14.9053944 51.3893779 8.29513944 72.9852693 8.29513944 72.9852693 0.0644223108 42.096687 0.0644223108 42.096687 43.9834343 51.3893779 43.9834343 51.3893779 35.4188606 51.3893779 25.8101195"></polygon>
                </g>
                <g id="Group-9" transform="translate(13.000000, 13.000000)">
                    <mask id="mask-4" fill="white">
                        <use xlink:href="#path-3"></use>
                    </mask>
                    <g id="Clip-8"></g>
                    <path d="M0.0268648256,9.47966197 C0.0268648256,14.698061 4.23169767,18.9284601 9.41838227,18.9284601 L9.41838227,18.9284601 C11.9274506,18.9284601 14.2010305,17.9324319 15.8858009,16.319662 L15.8858009,16.319662 C15.9801381,16.2210939 16.0773125,16.1261831 16.1758169,16.0319859 L16.1758169,16.0319859 C17.8604985,14.4191268 20.1341672,13.4230986 22.6431468,13.4230986 L22.6431468,13.4230986 L28.0415581,13.4230986 L45.7090378,13.4230986 L51.1663212,13.4230986 L51.1663212,17.3175634 L56.0428634,13.4230986 L60.9812035,9.47957277 L56.0433067,5.53622535 L51.1663212,1.64158216 L51.1663212,5.53622535 L45.7090378,5.53622535 L28.0415581,5.53622535 L22.6431468,5.53622535 C20.1339012,5.53622535 17.8603212,4.54019718 16.1757282,2.92715962 L16.1757282,2.92715962 C16.0773125,2.83305164 15.9801381,2.73831925 15.8859782,2.63992958 L15.8859782,2.63992958 C14.2012078,1.02698122 11.9274506,0.0310422535 9.41838227,0.0310422535 L9.41838227,0.0310422535 C4.23169767,0.0310422535 0.0268648256,4.26126291 0.0268648256,9.47966197" id="Fill-7" fill="url(#linearGradient-5)" mask="url(#mask-4)"></path>
                </g>
                <g id="Group-25" transform="translate(0.000000, 50.000000)">
                    <path d="M61.9346663,4.15827961 C61.9346663,3.21069573 60.9305303,2.66641791 59.5421157,2.66641791 C58.1319594,2.66641791 57.1280853,3.21069573 57.1280853,4.15827961 C57.1280853,5.14598813 58.6659852,5.56923293 59.5421157,5.71028707 C60.4179843,5.56923293 61.9346663,5.14598813 61.9346663,4.15827961 M62.1911139,9.88291887 C62.1911139,8.77434212 60.4179843,8.2503326 59.5421157,8.12921719 C58.6448547,8.2503326 56.8928555,8.77434212 56.8928555,9.88291887 C56.8928555,10.8507711 58.0465642,11.4754629 59.5421157,11.4754629 C60.994533,11.4754629 62.1911139,10.8507711 62.1911139,9.88291887 M53.8167939,10.2862249 C53.8167939,8.6533091 55.1625981,7.40367822 56.871725,6.83904972 C55.2906037,6.31504019 54.0517617,5.34751758 54.0517617,3.67439472 C54.0517617,1.13459636 56.8928555,0.126619552 59.5421157,0.126619552 C62.1696341,0.126619552 65.0322077,1.13459636 65.0322077,3.67439472 C65.0322077,5.34751758 63.771886,6.31504019 62.2122444,6.83904972 C63.8999789,7.40367822 65.2671756,8.6533091 65.2671756,10.2862249 C65.2671756,12.7858163 62.5326948,14.0155084 59.5421157,14.0155084 C56.5512747,14.0155084 53.8167939,12.7858163 53.8167939,10.2862249" id="Fill-10" fill="#FFFFFF"></path>
                    <g id="Group-14" transform="translate(65.267176, 4.015508)">
                        <mask id="mask-7" fill="white">
                            <use xlink:href="#path-6"></use>
                        </mask>
                        <g id="Clip-13"></g>
                        <path d="M0.0452087773,8.8284194 L1.2250027,6.94897174 C1.99706727,7.64355748 3.51989386,8.31760373 4.80663893,8.31760373 C5.98652051,8.31760373 6.5441568,7.88869557 6.5441568,7.27585035 C6.5441568,5.66208028 0.409982332,6.98996724 0.409982332,3.10858638 C0.409982332,1.45407129 1.91124336,0.00353179191 4.65664432,0.00353179191 C6.39407453,0.00353179191 7.78829674,0.575548491 8.81765773,1.35187476 L7.72368772,3.19032691 C7.10179308,2.5774817 5.92226216,2.04637701 4.65664432,2.04637701 C3.67023912,2.04637701 3.02651593,2.45499615 3.02651593,3.00638985 C3.02651593,4.45701285 9.18225595,3.23132241 9.18225595,7.21464933 C9.18225595,9.03264547 7.55212756,10.3605324 4.67812222,10.3605324 C2.87643366,10.3605324 1.13917878,9.78843224 0.0452087773,8.8284194" id="Fill-12" fill="#FFFFFF" mask="url(#mask-7)"></path>
                    </g>
                    <path d="M43.5114504,14.0399115 L46.3740458,14.0399115 C45.4198204,14.0386115 44.4657566,14.0228115 43.5114504,14.0076115 L43.5114504,14.0399115 Z" id="Fill-15" fill="#15211F"></path>
                    <path d="M47.9806521,7.24796461 L55.2206314,0.126619552 L51.1776265,0.126619552 L46.0858988,5.55040314 L46.0858988,0.126619552 L42.9389313,0.126619552 L42.9389313,9.09409087 L42.9389313,13.9885498 C43.9879205,14.0012362 45.0368208,14.0144234 46.0858988,14.0155084 L46.0858988,9.11161818 L51.7143785,14.0155084 L55.5343511,14.0155084 L47.9806521,7.24796461 Z" id="Fill-17" fill="#FFFFFF"></path>
                    <polygon id="Fill-19" fill="#FFFFFF" points="0 14.0155084 0 0.126619552 9.16030534 0.126619552 9.16030534 1.20898428 1.23437476 1.20898428 1.23437476 6.35277953 9.00871698 6.35277953 9.00871698 7.43514426 1.23437476 7.43514426 1.23437476 14.0155084"></polygon>
                    <path d="M23.8653168,7.34913503 C23.8653168,3.81135756 21.5684157,1.21533404 18.0341301,1.21533404 C14.4781857,1.21533404 12.202855,3.81135756 12.202855,7.34913503 C12.202855,10.8658822 14.4781857,13.482936 18.0341301,13.482936 C21.5684157,13.482936 23.8653168,10.8658822 23.8653168,7.34913503 M10.8778626,7.34913503 C10.8778626,3.26674896 13.7050966,0.126619552 18.0341301,0.126619552 C22.3414164,0.126619552 25.1908397,3.26674896 25.1908397,7.34913503 C25.1908397,11.4309346 22.3414164,14.571064 18.0341301,14.571064 C13.7050966,14.571064 10.8778626,11.4309346 10.8778626,7.34913503" id="Fill-21" fill="#FFFFFF"></path>
                    <path d="M36.2625506,4.18677557 C36.2625506,2.43776733 34.9406699,1.20906113 32.9471343,1.20906113 L28.7577866,1.20906113 L28.7577866,7.18540876 L32.9471343,7.18540876 C34.9406699,7.18540876 36.2625506,5.93636719 36.2625506,4.18677557 L36.2625506,4.18677557 Z M36.2401352,14.0155084 L32.0513255,8.26843373 L28.7577866,8.26843373 L28.7577866,14.0155084 L27.480916,14.0155084 L27.480916,0.126619552 L33.059032,0.126619552 C35.6353679,0.126619552 37.6069364,1.64685491 37.6069364,4.18677557 C37.6069364,6.70636086 35.7027934,8.10183374 33.4625091,8.18484204 L37.7862595,14.0155084 L36.2401352,14.0155084 Z" id="Fill-23" fill="#FFFFFF"></path>
                </g>
            </g>
        </g>
    </g>
</svg>