<?xml version="1.0" encoding="UTF-8"?>
<svg width="217px" height="188px" viewBox="0 0 217 188" version="1.1" xmlns="http://www.w3.org/2000/svg" xmlns:xlink="http://www.w3.org/1999/xlink">
    <title>logo</title>
    <defs>
        <polygon id="path-1" points="5.39282668e-05 0.187410359 110.559316 0.187410359 110.559316 127.951809 5.39282668e-05 127.951809"></polygon>
        <path d="M0.0783924419,27.4411268 C0.0783924419,42.5470188 12.3482326,54.7929108 27.4831483,54.7929108 L27.4831483,54.7929108 C34.8046919,54.7929108 41.4390727,51.9096714 46.3552878,47.2411268 L46.3552878,47.2411268 C46.6305669,46.9557981 46.914125,46.6810563 47.201564,46.4083803 L47.201564,46.4083803 C52.1175203,41.7395775 58.7521599,38.856338 66.0734448,38.856338 L66.0734448,38.856338 L81.826186,38.856338 L133.380471,38.856338 L149.305003,38.856338 L149.305003,50.1297887 L163.534913,38.856338 L177.945151,27.4408685 L163.536206,16.0259155 L149.305003,4.75194836 L149.305003,16.0259155 L133.380471,16.0259155 L81.826186,16.0259155 L66.0734448,16.0259155 C58.7513837,16.0259155 52.1170029,13.1426761 47.2013052,8.47335681 L47.2013052,8.47335681 C46.914125,8.20093897 46.6305669,7.92671362 46.3558052,7.64190141 L46.3558052,7.64190141 C41.4395901,2.97284038 34.8046919,0.0898591549 27.4831483,0.0898591549 L27.4831483,0.0898591549 C12.3482326,0.0898591549 0.0783924419,12.3352347 0.0783924419,27.4411268" id="path-3"></path>
        <linearGradient x1="-2.75351462e-05%" y1="49.9998608%" x2="100.000024%" y2="49.9998608%" id="linearGradient-5">
            <stop stop-color="#00B1E1" offset="0%"></stop>
            <stop stop-color="#2B75BA" offset="100%"></stop>
        </linearGradient>
        <polygon id="path-6" points="0.131298973 0.0100771236 26.6676692 0.0100771236 26.6676692 29.5613018 0.131298973 29.5613018"></polygon>
    </defs>
    <g id="Page-1" stroke="none" stroke-width="1" fill="none" fill-rule="evenodd">
        <g id="Homepage-Rd1" transform="translate(-1079.000000, -1656.000000)">
            <g id="logo" transform="translate(1079.000000, 1656.000000)">
                <g id="Group-6">
                    <g id="Group-3">
                        <mask id="mask-2" fill="white">
                            <use xlink:href="#path-1"></use>
                        </mask>
                        <g id="Clip-2"></g>
                        <path d="M108.581492,92.594741 L96.2801795,87.3533705 C90.3866807,95.8123347 81.2982558,102.0109 70.4015064,103.949514 C48.5642415,107.833625 27.7373919,93.1401434 23.8836974,71.1305179 C20.0297499,49.1208924 34.6081652,28.1299124 56.4454301,24.2455458 C72.0175637,21.4756972 87.0708286,28.1577052 95.8268334,40.1981195 L110.559316,33.1583745 C105.640308,31.7835219 101.687697,27.6757928 100.741287,22.27149 C100.192819,19.1382948 100.744576,16.0675697 102.112203,13.4558088 C97.3712964,9.77874104 92.123158,6.77813546 86.5246377,4.56490837 C86.2837976,4.91627092 86.0267666,5.26023904 85.7489909,5.59375299 C80.8970243,11.4236175 72.2748477,12.185243 66.4906377,7.29498008 C64.2218835,5.37676494 62.730547,2.87311554 62.0436974,0.187410359 C58.8578788,0.261099602 55.6368955,0.578549801 52.4019981,1.15378486 C49.6313251,1.64666135 46.936294,2.31598406 44.3229766,3.14441434 C44.3508048,3.50368127 44.3695255,3.86575299 44.3695255,4.23215936 C44.3705375,11.8412749 38.2513776,18.0110279 30.7015971,18.0120478 C27.6253203,18.0125578 24.7863418,16.9883028 22.5019026,15.2600478 C17.9120267,19.174502 13.9067952,23.7162072 10.6000506,28.7314104 C11.0210148,29.1235697 11.4242702,29.5432669 11.8024802,29.9971315 C16.6562177,35.8254661 15.9030864,44.5159522 10.1203943,49.408 C7.47191217,51.6487649 4.22765442,52.7003028 1.02260907,52.6258486 C-0.0320782816,58.4490837 -0.291639141,64.499761 0.340819093,70.6368765 C1.30822721,70.5968446 2.29385012,70.6570199 3.28655656,70.8332112 C10.7217356,72.153498 15.6872916,79.2985498 14.3773442,86.7926693 C13.6963131,90.68851 11.4513394,93.9086534 8.40972124,95.9201912 C11.4515924,101.261004 15.2210434,106.076558 19.559201,110.257466 C20.4790482,109.24545 21.5645995,108.355315 22.8062415,107.632701 C29.3438358,103.826869 37.7044277,106.083697 41.4804563,112.672892 C43.6105757,116.390247 43.8256115,120.692016 42.4354683,124.41906 C48.1447952,126.443092 54.1860363,127.658582 60.4018358,127.951809 C60.3942463,126.366598 60.6591198,124.753339 61.2280792,123.176542 C63.8092678,116.02588 71.6530148,112.337849 78.7476783,114.939155 C82.7928811,116.422629 85.718127,119.631044 87.0098597,123.439426 C92.7872391,121.113753 98.0981174,117.978263 102.829411,114.190534 C101.88553,113.02502 101.113678,111.685355 100.574318,110.191681 C98.0108382,103.096351 101.594094,95.2585179 108.581492,92.594741" id="Fill-1" fill="#15211F" mask="url(#mask-2)"></path>
                    </g>
                    <polygon id="Fill-4" fill="#15211F" points="149.240385 51.1390598 149.240385 43.3611474 149.240385 24.1313147 211.957221 24.1313147 211.957221 0.187410359 122.253392 0.187410359 122.253392 127.951809 149.240385 127.951809 149.240385 103.036685 149.240385 75.0839841"></polygon>
                </g>
                <g id="Group-9" transform="translate(37.000000, 38.000000)">
                    <mask id="mask-4" fill="white">
                        <use xlink:href="#path-3"></use>
                    </mask>
                    <g id="Clip-8"></g>
                    <path d="M0.0783924419,27.4411268 C0.0783924419,42.5470188 12.3482326,54.7929108 27.4831483,54.7929108 L27.4831483,54.7929108 C34.8046919,54.7929108 41.4390727,51.9096714 46.3552878,47.2411268 L46.3552878,47.2411268 C46.6305669,46.9557981 46.914125,46.6810563 47.201564,46.4083803 L47.201564,46.4083803 C52.1175203,41.7395775 58.7521599,38.856338 66.0734448,38.856338 L66.0734448,38.856338 L81.826186,38.856338 L133.380471,38.856338 L149.305003,38.856338 L149.305003,50.1297887 L163.534913,38.856338 L177.945151,27.4408685 L163.536206,16.0259155 L149.305003,4.75194836 L149.305003,16.0259155 L133.380471,16.0259155 L81.826186,16.0259155 L66.0734448,16.0259155 C58.7513837,16.0259155 52.1170029,13.1426761 47.2013052,8.47335681 L47.2013052,8.47335681 C46.914125,8.20093897 46.6305669,7.92671362 46.3558052,7.64190141 L46.3558052,7.64190141 C41.4395901,2.97284038 34.8046919,0.0898591549 27.4831483,0.0898591549 L27.4831483,0.0898591549 C12.3482326,0.0898591549 0.0783924419,12.3352347 0.0783924419,27.4411268" id="Fill-7" fill="url(#linearGradient-5)" mask="url(#mask-4)"></path>
                </g>
                <g id="Group-25" transform="translate(0.000000, 146.000000)">
                    <path d="M179.875647,11.8646565 C179.875647,9.16095248 176.959354,7.60798589 172.927009,7.60798589 C168.831519,7.60798589 165.915987,9.16095248 165.915987,11.8646565 C165.915987,14.6828466 170.38248,15.8904744 172.927009,16.2929386 C175.470777,15.8904744 179.875647,14.6828466 179.875647,11.8646565 M180.620443,28.1985457 C180.620443,25.035487 175.470777,23.5403512 172.927009,23.1947773 C170.321111,23.5403512 165.232814,25.035487 165.232814,28.1985457 C165.232814,30.9600804 168.583507,32.7424893 172.927009,32.7424893 C177.145236,32.7424893 180.620443,30.9600804 180.620443,28.1985457 M156.299068,29.3492831 C156.299068,24.6901483 160.207661,21.1246253 165.171445,19.5135929 C160.579425,18.0184571 156.98148,15.2578627 156.98148,10.4840067 C156.98148,3.2372994 165.232814,0.361278614 172.927009,0.361278614 C180.558059,0.361278614 188.871776,3.2372994 188.871776,10.4840067 C188.871776,15.2578627 185.211448,18.0184571 180.681812,19.5135929 C185.583466,21.1246253 189.554189,24.6901483 189.554189,29.3492831 C189.554189,36.4812693 181.612489,39.9899018 172.927009,39.9899018 C164.240767,39.9899018 156.299068,36.4812693 156.299068,29.3492831" id="Fill-10" fill="#15211F"></path>
                    <g id="Group-14" transform="translate(189.554189, 11.457293)">
                        <mask id="mask-7" fill="white">
                            <use xlink:href="#path-6"></use>
                        </mask>
                        <g id="Clip-13"></g>
                        <path d="M0.131298973,25.1897836 L3.55775151,19.8272292 C5.80004364,21.8090635 10.2227593,23.7322932 13.959828,23.7322932 C17.3865351,23.7322932 19.0060673,22.5085064 19.0060673,20.7598991 C19.0060673,16.1553921 1.19070371,19.9442 1.19070371,8.86960789 C1.19070371,4.14884472 5.55078691,0.0100771236 13.5242015,0.0100771236 C18.5701863,0.0100771236 22.6193987,1.64218999 25.6089519,3.85725135 L22.431756,9.10283494 C20.6255995,7.35422766 17.1999108,5.83884744 13.5242015,5.83884744 C10.6594041,5.83884744 8.78985135,7.00474444 8.78985135,8.57801452 C8.78985135,12.7170203 26.6678474,9.2198058 26.6678474,20.5852766 C26.6678474,25.7724939 21.9334972,29.5613018 13.5865794,29.5613018 C8.35397033,29.5613018 3.30849478,27.9289507 0.131298973,25.1897836" id="Fill-12" fill="#15211F" mask="url(#mask-7)"></path>
                    </g>
                    <path d="M126.369459,40.0595301 L134.683239,40.0595301 C131.911901,40.0558208 129.141032,40.0107393 126.369459,39.9673697 L126.369459,40.0595301 Z" id="Fill-15" fill="#15211F"></path>
                    <path d="M139.349275,20.6803338 L160.376206,0.361278614 L148.634185,0.361278614 L133.84638,15.8367481 L133.84638,0.361278614 L124.706703,0.361278614 L124.706703,25.9478136 L124.706703,39.9129817 C127.753262,39.9491794 130.799563,39.9868059 133.84638,39.9899018 L133.84638,25.9978236 L150.193064,39.9899018 L161.287336,39.9899018 L139.349275,20.6803338 Z" id="Fill-17" fill="#15211F"></path>
                    <polygon id="Fill-19" fill="#15211F" points="0 39.9899018 0 0.361278614 26.6040967 0.361278614 26.6040967 3.44954755 3.58497062 3.44954755 3.58497062 18.1261372 26.1638415 18.1261372 26.1638415 21.2144062 3.58497062 21.2144062 3.58497062 39.9899018"></polygon>
                    <path d="M69.3115755,20.9689994 C69.3115755,10.8747974 62.6407304,3.46766505 52.3761734,3.46766505 C42.048713,3.46766505 35.4405145,10.8747974 35.4405145,20.9689994 C35.4405145,31.0031966 42.048713,38.4703337 52.3761734,38.4703337 C62.6407304,38.4703337 69.3115755,31.0031966 69.3115755,20.9689994 M31.5923648,20.9689994 C31.5923648,9.32088697 39.8034455,0.361278614 52.3761734,0.361278614 C64.8857411,0.361278614 73.1612658,9.32088697 73.1612658,20.9689994 C73.1612658,32.6154384 64.8857411,41.5750467 52.3761734,41.5750467 C39.8034455,41.5750467 31.5923648,32.6154384 31.5923648,20.9689994" id="Fill-21" fill="#15211F"></path>
                    <path d="M105.316621,11.9459629 C105.316621,6.95558614 101.477508,3.44976681 95.6877215,3.44976681 L83.5206803,3.44976681 L83.5206803,20.5018457 L95.6877215,20.5018457 C101.477508,20.5018457 105.316621,16.9380042 105.316621,11.9459629 L105.316621,11.9459629 Z M105.25152,39.9899018 L93.0860412,23.5919984 L83.5206803,23.5919984 L83.5206803,39.9899018 L79.81229,39.9899018 L79.81229,0.361278614 L96.0127036,0.361278614 C103.495106,0.361278614 109.221094,4.69890667 109.221094,11.9459629 C109.221094,19.134997 103.690928,23.1166452 97.1845144,23.3534895 L109.741899,39.9899018 L105.25152,39.9899018 Z" id="Fill-23" fill="#15211F"></path>
                </g>
            </g>
        </g>
    </g>
</svg>